HIERARCHY
ROOT root
{
	OFFSET 0.000000 0.000000 0.000000
	CHANNELS 6 Xposition Yposition Zposition Zrotation Yrotation Xrotation
	JOINT lhip
	{
		OFFSET 0.058581 -0.082280 -0.017664
		CHANNELS 3 Zrotation Yrotation Xrotation
		JOINT lknee
		{
			OFFSET 0.043451 -0.386469 0.008037
			CHANNELS 3 Zrotation Yrotation Xrotation
			JOINT lankle
			{
				OFFSET -0.014790 -0.426874 -0.037428
				CHANNELS 3 Zrotation Yrotation Xrotation
				JOINT ltoe
				{
					OFFSET 0.041054 -0.060286 0.122042
					CHANNELS 3 Zrotation Yrotation Xrotation
					End Site
					{
						OFFSET 0.000000 0.000000 0.000000
					}
				}
			}
		}
	}
	JOINT rhip
	{
		OFFSET -0.060310 -0.090513 -0.013543
		CHANNELS 3 Zrotation Yrotation Xrotation
		JOINT rknee
		{
			OFFSET -0.043257 -0.383688 -0.004843
			CHANNELS 3 Zrotation Yrotation Xrotation
			JOINT rankle
			{
				OFFSET 0.019056 -0.420046 -0.034562
				CHANNELS 3 Zrotation Yrotation Xrotation
				JOINT rtoe
				{
					OFFSET -0.034840 -0.062106 0.130323
					CHANNELS 3 Zrotation Yrotation Xrotation
					End Site
					{
						OFFSET 0.000000 0.000000 0.000000
					}
				}
			}
		}
	}
	JOINT lowerback
	{
		OFFSET 0.004439 0.124404 -0.038385
		CHANNELS 3 Zrotation Yrotation Xrotation
		JOINT upperback
		{
			OFFSET 0.004488 0.137956 0.026820
			CHANNELS 3 Zrotation Yrotation Xrotation
			JOINT chest
			{
				OFFSET -0.002265 0.056032 0.002855
				CHANNELS 3 Zrotation Yrotation Xrotation
				JOINT lowerneck
				{
					OFFSET -0.013390 0.211636 -0.033468
					CHANNELS 3 Zrotation Yrotation Xrotation
					JOINT upperneck
					{
						OFFSET 0.010113 0.088937 0.050410
						CHANNELS 3 Zrotation Yrotation Xrotation
						End Site
						{
							OFFSET 0.000000 0.000000 0.000000
						}
					}
				}
				JOINT lclavicle
				{
					OFFSET 0.071702 0.114000 -0.018898
					CHANNELS 3 Zrotation Yrotation Xrotation
					JOINT lshoulder
					{
						OFFSET 0.122921 0.045205 -0.019046
						CHANNELS 3 Zrotation Yrotation Xrotation
						JOINT lelbow
						{
							OFFSET 0.255332 -0.015649 -0.022946
							CHANNELS 3 Zrotation Yrotation Xrotation
							JOINT lwrist
							{
								OFFSET 0.265709 0.012698 -0.007375
								CHANNELS 3 Zrotation Yrotation Xrotation
								End Site
								{
									OFFSET 0.000000 0.000000 0.000000
								}
							}
						}
					}
				}
				JOINT rclavicle
				{
					OFFSET -0.082954 0.112472 -0.023707
					CHANNELS 3 Zrotation Yrotation Xrotation
					JOINT rshoulder
					{
						OFFSET -0.113228 0.046853 -0.008472
						CHANNELS 3 Zrotation Yrotation Xrotation
						JOINT relbow
						{
							OFFSET -0.260127 -0.014369 -0.031269
							CHANNELS 3 Zrotation Yrotation Xrotation
							JOINT rwrist
							{
								OFFSET -0.269108 0.006794 -0.006027
								CHANNELS 3 Zrotation Yrotation Xrotation
								End Site
								{
									OFFSET 0.000000 0.000000 0.000000
								}
							}
						}
					}
				}
			}
		}
	}
}
MOTION
Frames: 7
Frame Time: 0.033333
0.135293 0.553378 0.985248 -2.620148 -4.774342 86.431533 4.615874 -10.522791 -41.304992 -7.727796 -6.238662 27.770363 -0.146702 2.878280 10.557866 0.000000 -0.000000 0.000000 1.792408 -5.366353 -2.750813 2.463023 2.628756 22.205869 1.170788 -2.267549 -19.384295 0.000000 -0.000000 0.000000 -0.723191 6.768414 14.309887 -3.097713 0.211737 -7.256881 -2.500276 2.762768 6.978146 -5.819478 17.264147 15.994218 -1.119074 16.786057 8.748248 -10.079341 21.491212 -2.919456 -41.148935 0.737309 -2.018934 101.477644 -67.692035 -69.404356 14.137756 -2.753465 -12.919585 11.253074 -17.564912 -0.712818 53.923152 -6.034102 -5.303432 -32.174266 28.325944 -18.964321 -0.677706 3.063397 -6.308704 
0.134786 0.542720 0.981255 -3.904189 -4.670591 86.186984 4.750937 -9.859368 -40.020687 -7.390924 -7.025334 25.579497 -1.502846 2.877759 13.138891 0.000000 -0.000000 0.000000 1.601541 -5.544132 -2.412564 2.888990 3.014353 23.900761 0.779743 -1.674901 -20.391368 0.000000 -0.000000 0.000000 -0.665704 6.556402 13.946260 -3.029642 0.021886 -6.509034 -2.531725 2.728227 6.659694 -5.941250 18.428827 15.973959 -1.383067 17.578805 8.164802 -9.894828 21.060050 -2.827176 -41.300114 0.962480 -2.276310 101.231526 -67.564338 -68.891651 14.646486 -2.750855 -13.265027 11.323648 -17.481533 -0.491351 54.182600 -6.221015 -6.035621 -32.274606 28.215038 -18.794198 -0.709790 3.066567 -6.273808 
0.134367 0.532823 0.976837 -5.293971 -4.768808 86.434601 5.090842 -9.310513 -39.551224 -7.085409 -6.696122 23.818782 -2.124442 3.260086 14.817193 0.000000 -0.000000 0.000000 1.296710 -5.232225 -2.747165 3.262681 2.850478 25.709856 -0.005886 -1.409791 -21.908189 0.000000 -0.000000 0.000000 -0.908728 6.305282 13.973292 -3.060725 0.083443 -7.142437 -2.507130 2.619368 6.574948 -5.677653 19.588454 15.652962 -1.518806 18.106434 8.581082 -9.787781 21.087272 -3.127390 -41.095099 1.066231 -2.216802 101.021396 -67.874306 -68.963008 14.347551 -2.708146 -13.234959 11.284521 -17.798991 -0.355026 54.416304 -6.494089 -6.124060 -32.206908 28.025035 -18.955545 -0.452907 3.010894 -6.159164 
0.134725 0.522183 0.971775 -6.287286 -4.853957 86.612902 5.281883 -9.230543 -39.111781 -6.724679 -6.698819 22.361371 -2.721519 3.530492 16.249751 0.000000 -0.000000 0.000000 0.899811 -5.093114 -3.226172 3.644720 2.501774 28.036772 -0.453286 -1.104137 -23.177255 0.000000 -0.000000 0.000000 -0.968855 5.991426 13.626499 -3.039129 -0.117612 -7.015632 -2.556703 2.316835 6.358826 -5.707448 20.343679 15.536679 -1.801092 18.868808 8.612757 -9.708530 20.516337 -2.721946 -41.579360 1.271603 -2.276001 100.934678 -67.133878 -68.451125 14.568538 -2.681352 -13.174165 11.214307 -17.388532 -0.101431 54.715277 -6.736028 -6.276305 -32.444641 27.484824 -19.182348 -0.295556 3.055349 -6.679253 
0.135327 0.510199 0.967006 -6.984741 -4.801802 86.518501 5.005834 -8.850706 -38.434649 -6.546284 -7.437061 21.027902 -3.123164 3.052994 18.569876 0.000000 -0.000000 0.000000 0.574750 -5.288381 -2.822628 3.907081 2.675099 29.522637 -0.809561 -0.685715 -24.429985 0.000000 -0.000000 0.000000 -0.840178 5.662349 13.263430 -2.938812 -0.395541 -6.257755 -2.580451 2.259174 6.143875 -5.933251 20.779379 15.190551 -1.934941 19.311371 8.367822 -10.000074 20.237681 -3.159918 -41.422073 1.264221 -2.222973 101.020062 -67.469736 -68.819291 14.303469 -2.658172 -12.901190 11.409391 -17.393945 -0.397971 54.534247 -7.094279 -6.744359 -32.449336 27.406803 -19.686949 0.167275 3.187147 -5.748489 
0.136523 0.497175 0.961596 -7.850032 -4.728970 86.697943 4.915867 -8.626663 -37.813683 -7.132345 -9.017422 19.611705 -5.214191 1.943844 22.410868 0.000000 -0.000000 0.000000 0.243452 -5.179374 -3.022222 4.235063 2.944978 31.743661 -1.420998 -0.196086 -25.672902 0.000000 -0.000000 0.000000 -0.568407 5.376089 12.799693 -2.825314 -0.471730 -5.968310 -2.712875 2.230513 5.863854 -6.101245 21.361887 15.015615 -2.134083 19.419108 8.267432 -9.968750 19.789799 -2.929994 -41.841263 1.373230 -2.076751 101.269651 -67.402805 -68.931598 14.193105 -2.457936 -12.933185 11.317728 -17.296117 -0.020188 54.480104 -7.362102 -7.383765 -32.655293 27.597728 -19.565617 0.582754 3.255376 -5.888342 
0.138273 0.482467 0.956196 -8.649149 -4.703742 86.739139 4.279385 -8.284173 -37.080015 -8.518680 -11.168283 19.493508 -8.311577 0.356393 25.687060 0.000000 -0.000000 0.000000 -0.365380 -5.491545 -2.945110 4.571920 3.128699 33.933026 -2.155702 1.154203 -27.328882 0.000000 -0.000000 0.000000 -0.234970 5.222952 12.206256 -2.692585 -0.661092 -5.333972 -2.905485 2.191907 5.570189 -5.859303 21.928082 15.122095 -2.299243 19.343361 7.878118 -10.140379 19.300121 -3.005853 -42.194262 1.778735 -1.694259 101.617690 -67.185165 -69.077977 13.847907 -2.629022 -12.874419 11.426787 -17.126266 -0.033238 54.063056 -7.378046 -8.175173 -32.888638 27.573841 -19.336385 1.480348 3.391905 -5.307935 
